<svg height="512" viewBox="0 0 128 128" width="512" xmlns="http://www.w3.org/2000/svg"><g><g fill="#385b60"><g><path d="m89.355 112.294a1.742 1.742 0 0 1 -1.011-.323l-4.108-2.92a1.749 1.749 0 0 1 -.671-.952l-3.155-11.211-8.121-7.068a1.75 1.75 0 1 1 2.3-2.64l8.511 7.41a1.756 1.756 0 0 1 .536.847l3.13 11.12 3.6 2.561a1.75 1.75 0 0 1 -1.016 3.176z"/><path d="m38.645 112.294a1.75 1.75 0 0 1 -1.016-3.176l3.6-2.561 3.13-11.12a1.756 1.756 0 0 1 .536-.847l8.516-7.41a1.75 1.75 0 1 1 2.3 2.64l-8.121 7.068-3.155 11.212a1.749 1.749 0 0 1 -.671.952l-4.108 2.92a1.742 1.742 0 0 1 -1.011.322z"/></g><g><path d="m75.866 54.729a1.752 1.752 0 0 1 -1.531-2.595l5.942-10.79a1.754 1.754 0 0 1 1.054-.839l4.356-1.241 5.1-7.041a1.75 1.75 0 0 1 2.834 2.054l-5.456 7.531a1.755 1.755 0 0 1 -.937.656l-4.237 1.207-5.591 10.152a1.753 1.753 0 0 1 -1.534.906z"/><path d="m52.134 54.729a1.749 1.749 0 0 1 -1.535-.906l-5.59-10.152-4.237-1.207a1.755 1.755 0 0 1 -.937-.656l-5.456-7.531a1.75 1.75 0 0 1 2.834-2.054l5.1 7.041 4.356 1.241a1.754 1.754 0 0 1 1.054.839l5.942 10.79a1.752 1.752 0 0 1 -1.531 2.595z"/></g><g><path d="m67.766 37.875c-.052 0-.1 0-.157-.006a1.75 1.75 0 0 1 -1.588-1.9c.4-4.5 2.064-19.367 6.771-21.82a4.32 4.32 0 0 1 5.316.859 1.75 1.75 0 0 1 -2.478 2.472.867.867 0 0 0 -1.222-.227c-2.016 1.051-4.163 10.686-4.9 19.025a1.75 1.75 0 0 1 -1.742 1.597z"/><path d="m60.234 37.875a1.75 1.75 0 0 1 -1.741-1.595c-.74-8.34-2.887-17.975-4.9-19.025a.866.866 0 0 0 -1.221.227 1.75 1.75 0 0 1 -2.478-2.472 4.318 4.318 0 0 1 5.315-.859c4.708 2.453 6.374 17.321 6.772 21.82a1.75 1.75 0 0 1 -1.588 1.9c-.054.002-.107.004-.159.004z"/></g></g><circle cx="64" cy="43.417" fill="#f9d42f" r="12"/><path d="m49.9 57.619c-10 24.359 4.2 45.958 9.494 52.793a5.816 5.816 0 0 0 4.6 2.242 5.816 5.816 0 0 0 4.6-2.242c5.306-6.835 19.506-28.434 9.506-52.793a15.177 15.177 0 0 0 -14.087-9.272h-.018a15.177 15.177 0 0 0 -14.095 9.272z" fill="#f9d42f"/><path d="m64 93.72a52.323 52.323 0 0 0 14.73-2.06 58.507 58.507 0 0 1 -2.81 6.85 59.318 59.318 0 0 1 -23.84 0 60.292 60.292 0 0 1 -2.8-6.85 52.252 52.252 0 0 0 14.72 2.06z" fill="#537980"/><path d="m64 70.86a57.513 57.513 0 0 1 -17.06-2.53 44.173 44.173 0 0 1 1.27-5.85 53.569 53.569 0 0 0 31.58 0 42.7 42.7 0 0 1 1.28 5.85 57.58 57.58 0 0 1 -17.07 2.53z" fill="#537980"/><path d="m81.56 76.31a46.977 46.977 0 0 1 -.61 6.48 58.789 58.789 0 0 1 -33.89.01 45.618 45.618 0 0 1 -.61-6.49 53.2 53.2 0 0 0 35.11 0z" fill="#537980"/><path d="m64 48.347s45.973 47.487 55.96 24.527-30.907-24.527-55.96-24.527z" fill="#0f89cc"/><path d="m64 48.347s20.938 62.691 39.866 46.3-17.273-35.474-39.866-46.3z" fill="#3ea7fb"/><path d="m95.585 75.7a1.746 1.746 0 0 1 -1.139-.422c-1.035-.888-2.188-1.807-3.426-2.731a1.75 1.75 0 1 1 2.091-2.806c1.3.971 2.519 1.941 3.615 2.881a1.75 1.75 0 0 1 -1.141 3.078z" fill="#0f89cc"/><path d="m64 48.347s-45.973 47.487-55.96 24.527 30.907-24.527 55.96-24.527z" fill="#0f89cc"/><path d="m64 48.347s-20.938 62.691-39.866 46.3 17.273-35.474 39.866-46.3z" fill="#3ea7fb"/></g></svg>