<svg id="Layer_1" enable-background="new 0 0 512.119 512.119" height="512" viewBox="0 0 512.119 512.119" width="512" xmlns="http://www.w3.org/2000/svg"><g><g><path d="m427.204 153.458-21.213-21.213 18.971-18.971c23.578-23.579 61.944-23.58 85.523 0l1.635 1.635-21.213 21.213-1.635-1.635c-11.883-11.883-31.216-11.882-43.097 0z" fill="#60382c"/></g><g><path d="m427.204 153.458-21.213-21.213 18.971-18.971c23.578-23.579 61.944-23.58 85.523 0l1.635 1.635-21.213 21.213-1.635-1.635c-11.883-11.883-31.216-11.882-43.097 0z" fill="#3c1b13"/></g><g><path d="m379.874 106.128-21.213-21.213 18.971-18.971c11.882-11.882 11.882-31.215 0-43.097l-1.635-1.635 21.212-21.212 1.635 1.635c23.579 23.579 23.579 61.944 0 85.523z" fill="#60382c"/></g><path d="m415.3 115.686-18.867-18.867c-14.704-14.704-34.254-22.802-55.049-22.802s-40.345 8.098-55.049 22.802c-30.354 30.354-30.354 79.744 0 110.098l18.868 18.868c14.704 14.704 34.254 22.801 55.049 22.801s40.345-8.098 55.049-22.802 22.802-34.254 22.802-55.049-8.099-40.345-22.803-55.049z" fill="#8c4a50"/><path d="m405.867 106.253-110.098 110.098 9.434 9.434c14.704 14.704 34.254 22.801 55.049 22.801s40.345-8.098 55.049-22.802 22.802-34.254 22.802-55.049c0-20.794-8.098-40.345-22.802-55.049z" fill="#66333e"/><g><path d="m.523 462.17h68.853v30h-68.853z" fill="#60382c" transform="matrix(.707 -.707 .707 .707 -327.173 164.473)"/></g><path d="m5.826 474.973h68.853v14.999h-68.853z" fill="#3c1b13" transform="matrix(.707 -.707 .707 .707 -329.37 169.776)"/><path d="m282.521 229.598-140.496-11.12-65.475 65.476c-22.623 22.623-37.513 51.235-43.06 82.744s-1.325 63.486 12.211 92.475l2.306 4.939 4.939 2.306c20.696 9.664 42.752 14.563 65.556 14.563 41.433 0 80.378-16.128 109.663-45.413l65.476-65.475z" fill="#ffda44"/><path d="m52.947 466.418c20.696 9.664 42.752 14.563 65.556 14.563 41.433 0 80.378-16.128 109.663-45.413l65.476-65.475-11.12-140.495-234.514 234.514z" fill="#ffb655"/><path d="m231.831 109.986c-22.235-22.236-51.799-34.481-83.245-34.481s-61.01 12.245-83.246 34.481l-31.744 31.744 112.419 112.418c17.785 17.786 41.432 27.581 66.584 27.581 6.797 0 13.483-.721 19.974-2.117-6.492 30.228 1.956 63.051 25.398 86.493l112.418 112.418 31.744-31.745c22.236-22.235 34.481-51.799 34.481-83.245s-12.246-61.009-34.481-83.245z" fill="#fff5f5"/><path d="m151.829 238.082h30v214.416h-30z" fill="#60382c" transform="matrix(.707 -.707 .707 .707 -195.295 219.101)"/><path d="m36.149 354.504 121.511 121.511c10.675-2.764 20.993-6.653 30.805-11.621l-140.695-140.695c-4.937 9.781-8.842 20.088-11.621 30.805z" fill="#60382c"/><path d="m316.982 195.138-84.491 84.491c.027-.006.055-.011.082-.016-6.492 30.228 1.956 63.051 25.398 86.493l112.418 112.418 31.744-31.745c22.236-22.235 34.481-51.799 34.481-83.245s-12.246-61.009-34.481-83.245z" fill="#eddee7"/><g fill="#3c1b13"><path d="m189.733 329.59h30v107.208h-30z" transform="matrix(.707 -.707 .707 .707 -210.994 257.001)"/><path d="m157.66 476.015c10.675-2.764 20.993-6.653 30.805-11.621l-70.37-70.37-21.213 21.213z"/></g></g></svg>